<svg width="26" height="30" viewBox="0 0 26 30" fill="none" xmlns="http://www.w3.org/2000/svg">
<path d="M6.05238 15.471C6.05238 15.5269 6.05238 15.6746 6.01499 15.8302C5.97296 16.0177 5.84175 16.425 5.34108 16.7125C5.11178 16.8401 4.69055 17 4.03533 17C3.05271 17 2.53334 16.6605 2.2947 16.3612C2.18259 16.2253 2 15.9299 2 15.4986C2 14.8479 2.36982 14.5085 2.61314 14.3489C2.97365 14.1134 3.45566 14.0176 3.90023 14.0015C4.31212 13.9897 4.80811 14.0456 5.1776 14.2012C5.22898 14.2252 5.3228 14.265 5.43958 14.3371C5.53302 14.3969 5.62684 14.469 5.70159 14.5486C5.84216 14.6884 6.05238 14.9996 6.05238 15.471ZM5.20991 15.5029C5.20991 15.3832 5.19121 15.0756 4.91517 14.816C4.68587 14.6006 4.33045 14.5006 3.98863 14.5085C3.91388 14.5124 3.71726 14.5246 3.5113 14.6002C2.89816 14.8318 2.85141 15.3309 2.85141 15.5184C2.85141 15.5743 2.85609 15.7579 2.94019 15.9256C2.96356 15.9776 2.99156 16.0296 3.06673 16.1174C3.09006 16.1414 3.15079 16.2171 3.2353 16.277C3.36647 16.3727 3.61914 16.4924 4.02599 16.4924C4.10074 16.4924 4.29735 16.4885 4.50328 16.4247C5.15385 16.225 5.20991 15.6779 5.20991 15.5023V15.5029ZM7.9896 16.8925C7.80233 16.9086 7.6151 16.9243 7.42821 16.9243C7.38618 16.9243 7.33943 16.9243 7.29703 16.9204C7.22228 16.9165 6.84775 16.9003 6.73097 16.625C6.6889 16.5332 6.6889 16.4533 6.6889 16.3615V15.2756H6.30505V14.8884H6.6889V14.3496H7.45625V14.8884H7.98492V15.2756H7.45625V16.1898C7.45625 16.2816 7.4656 16.3217 7.49828 16.3615C7.54503 16.4135 7.61043 16.4332 7.7603 16.4332C7.83505 16.4332 7.91485 16.4253 7.9896 16.4214V16.8925ZM9.74426 16.8925C9.55699 16.9086 9.36972 16.9243 9.18287 16.9243C9.14084 16.9243 9.09409 16.9243 9.05165 16.9204C8.9769 16.9165 8.60241 16.9003 8.48559 16.625C8.44356 16.5332 8.44356 16.4533 8.44356 16.3615V15.2756H8.05967V14.8884H8.44356V14.3496H9.21091V14.8884H9.73958V15.2756H9.21091V16.1898C9.21091 16.2816 9.22022 16.3217 9.25294 16.3615C9.29965 16.4135 9.36546 16.4332 9.51496 16.4332C9.58971 16.4332 9.66951 16.4253 9.74426 16.4214V16.8925ZM13.2072 15.8664C13.2072 15.9582 13.1932 16.2177 13.0106 16.4533C12.9639 16.5132 12.8891 16.601 12.7346 16.7007C12.2993 16.9842 11.7473 16.9921 11.5881 16.9921C11.1902 16.9921 10.8628 16.9043 10.7316 16.8562C10.6755 16.8362 10.5677 16.7964 10.4508 16.7204C10.3197 16.6365 10.2449 16.5608 10.2029 16.5168C10.1188 16.425 9.96421 16.2135 9.96421 15.894C9.96421 15.8062 9.97823 15.5746 10.1421 15.3552C10.3294 15.1078 10.7834 14.7924 11.6161 14.7963C12.1261 14.7963 12.6972 14.9282 13.006 15.3075C13.1932 15.543 13.2072 15.7585 13.2072 15.8664ZM12.4118 15.8782C12.4118 15.8223 12.4025 15.6865 12.3087 15.5588C12.2106 15.4269 11.9813 15.2555 11.546 15.2753C11.2466 15.2871 11.064 15.3832 10.9753 15.4549C10.8959 15.5187 10.76 15.6624 10.76 15.9059C10.76 16.1493 10.9426 16.373 11.2232 16.4608C11.2934 16.4809 11.4105 16.5049 11.5931 16.5049C11.7617 16.5049 11.8785 16.477 11.9486 16.4569C12.3698 16.3332 12.4118 15.9977 12.4118 15.8779V15.8782ZM14.5036 16.9082H13.7363V14.0894H14.5036V16.9082ZM18.1301 16.9082H17.2876C17.2456 16.7924 17.2456 16.7566 17.2409 16.6928C17.035 16.7967 16.7449 16.9681 16.1831 16.9641C15.6731 16.9641 15.4065 16.8602 15.2426 16.7085C15.1114 16.5888 15.0506 16.453 15.0506 16.2895C15.0506 15.9582 15.2612 15.8184 15.4014 15.7585C15.6961 15.6388 16.1968 15.6388 16.5106 15.6388H17.2452C17.2452 15.571 17.2545 15.495 17.2078 15.4272C17.105 15.2795 16.7445 15.2717 16.576 15.2717C16.328 15.2717 16.1828 15.2917 16.08 15.3394C16.0426 15.3555 15.9959 15.3832 15.9721 15.4154C15.9628 15.4315 15.9581 15.4434 15.9535 15.4591L15.1721 15.4513C15.1861 15.3835 15.2142 15.2358 15.3687 15.096C15.584 14.9042 15.9535 14.8164 16.5993 14.8164C17.0673 14.8164 17.3293 14.8604 17.5306 14.9282C17.582 14.9483 17.7833 15.016 17.8957 15.1598C18.0223 15.3194 18.0223 15.5391 18.0223 15.7148V16.6609C18.0223 16.8125 18.069 16.8405 18.1297 16.9082H18.1301ZM17.2409 15.974H16.7029C16.5814 15.974 16.4642 15.9819 16.347 15.9941C16.0944 16.0141 15.9679 16.05 15.9025 16.1457C15.8651 16.1937 15.8604 16.2496 15.8604 16.2694C15.8604 16.2891 15.8651 16.3372 15.9025 16.3852C15.9725 16.473 16.1224 16.525 16.3798 16.525C16.4498 16.525 16.5577 16.5171 16.6231 16.5049C16.6978 16.4931 17.063 16.4131 17.2032 16.1737C17.2358 16.1217 17.2452 16.0858 17.2405 15.974H17.2409ZM21.6959 15.8621C21.6959 15.9381 21.6912 16.1095 21.6024 16.3013C21.4012 16.7405 20.9425 16.9799 20.3905 16.9799C20.269 16.9799 19.9786 16.9638 19.6839 16.8204C19.6138 16.7885 19.548 16.7487 19.4826 16.7085V16.9082H18.7152V14.0894H19.4826V15.1233C19.5807 15.0516 19.6138 15.0315 19.6792 14.9957C19.8057 14.9279 20.0771 14.816 20.4699 14.816C20.774 14.816 20.9846 14.8878 21.0924 14.9358C21.1345 14.9558 21.2189 14.9957 21.3171 15.0716C21.3404 15.0917 21.4296 15.1634 21.495 15.2473C21.5697 15.3391 21.6963 15.5628 21.6963 15.8621H21.6959ZM20.8958 15.8901C20.8958 15.8302 20.8911 15.6384 20.7599 15.4868C20.6194 15.3312 20.3808 15.267 20.1608 15.2792C19.9829 15.2871 19.8003 15.343 19.6741 15.447C19.59 15.5147 19.4729 15.6546 19.4729 15.898C19.4729 15.9338 19.4729 16.0815 19.543 16.1974C19.6644 16.401 19.9548 16.5049 20.2075 16.5049C20.3103 16.5049 20.4228 16.4849 20.5116 16.449C20.6614 16.3931 20.8954 16.2454 20.8954 15.8901H20.8958ZM25 16.2575C25 16.6928 24.532 16.9803 23.5915 16.9803C23.5074 16.9803 22.9316 16.9921 22.5477 16.8046C22.4729 16.7688 22.295 16.6727 22.1778 16.4891C22.1311 16.4131 22.1077 16.3533 22.0844 16.2737L22.9129 16.2217C22.9409 16.3016 22.9829 16.3615 23.0581 16.4135C23.1753 16.4895 23.3248 16.5332 23.6241 16.5332C23.6475 16.5332 23.9002 16.5372 24.0594 16.4773C24.1388 16.4493 24.1999 16.4056 24.1999 16.3256C24.1999 16.1858 24.0033 16.1618 23.7413 16.1299C23.498 16.1019 23.25 16.0901 23.0067 16.0621C22.8334 16.0421 22.6509 16.0062 22.5014 15.9263C22.3141 15.8266 22.2207 15.6746 22.2207 15.4871C22.2207 15.4434 22.23 15.3036 22.3188 15.1838C22.4873 14.9483 22.9082 14.7884 23.6008 14.7884C23.7223 14.7884 24.1715 14.7805 24.546 14.9562C24.6301 14.996 24.724 15.0519 24.794 15.1157C24.9248 15.2355 24.972 15.3753 24.9906 15.4312L24.1906 15.4749C24.1766 15.4391 24.1532 15.399 24.0785 15.3473C23.9803 15.2795 23.8305 15.2276 23.5498 15.2276C23.2551 15.2276 23.0117 15.2914 23.0164 15.4272C23.0164 15.4871 23.0725 15.523 23.0865 15.5312C23.1753 15.5792 23.3859 15.6029 23.6432 15.6269C23.8258 15.6431 24.0037 15.6549 24.1859 15.671C24.228 15.675 24.518 15.6911 24.7099 15.7947C24.8972 15.8944 25 16.07 25 16.2579V16.2575Z" fill="white"/>
</svg>
