<svg width="30" height="30" viewBox="0 0 30 30" fill="none" xmlns="http://www.w3.org/2000/svg">
<path d="M16.5891 3.04164C17.6032 3.12458 18.3568 4.01524 18.2684 5.02993C18.1785 6.04463 17.2828 6.80428 16.2686 6.72268C13.9258 6.53375 11.6428 7.26863 9.84049 8.79331C8.03888 10.3187 6.93358 12.449 6.72878 14.7931C6.54 16.9612 7.15277 19.1044 8.45526 20.8302C8.53125 20.9317 8.60925 21.0312 8.69461 21.1327L6.55874 20.3257C5.64053 18.6133 5.23536 16.659 5.40742 14.6865C5.64286 11.9886 6.91397 9.53773 8.98753 7.78449C11.0611 6.02989 13.6873 5.18404 16.3836 5.40123C16.6694 5.42504 16.9219 5.20992 16.947 4.92325C16.9728 4.63727 16.7593 4.38623 16.4728 4.3631C13.5001 4.12341 10.6031 5.05588 8.3173 6.99063C6.03021 8.92405 4.62834 11.6285 4.3692 14.6036C4.21383 16.3925 4.48369 18.1646 5.15511 19.7954L3.52747 19.1795C3.07255 17.6779 2.90852 16.0936 3.04851 14.4963C3.33898 11.1682 4.90797 8.14446 7.46502 5.97979C10.0227 3.81579 13.2629 2.77235 16.5891 3.04164Z" fill="url(#paint0_linear_621_39)"/>
<path d="M22.3378 9.86883L24.4355 10.6619C25.359 12.3769 25.7676 14.3387 25.5942 16.3138C25.1072 21.8816 20.1832 26.0476 14.618 25.599C14.3321 25.5766 14.0783 25.7903 14.0539 26.0764C14.0421 26.215 14.0845 26.3501 14.1738 26.4555C14.2625 26.5617 14.3888 26.6263 14.5274 26.6372C17.5002 26.8769 20.3972 25.9444 22.683 24.0096C24.9687 22.0763 26.3719 19.3718 26.6311 16.3966C26.7878 14.6051 26.5165 12.8289 25.8418 11.1934L27.4694 11.8093C27.9264 13.3156 28.0917 14.904 27.9511 16.5033C27.7567 18.7344 26.987 20.8294 25.7309 22.6194C25.1132 23.5 24.3779 24.3058 23.5339 25.0191C20.9775 27.1831 17.736 28.2265 14.4104 27.958C13.9185 27.9175 13.474 27.6893 13.1565 27.3141C12.8391 26.9388 12.6887 26.4606 12.7319 25.9689C12.8197 24.9549 13.7181 24.1967 14.7316 24.2762C19.5699 24.667 23.8494 21.0456 24.2721 16.2065C24.4602 14.0538 23.8548 11.9206 22.5657 10.1988C22.489 10.094 22.4049 9.98711 22.3069 9.86893L22.3358 9.86816L22.3378 9.86883Z" fill="url(#paint1_linear_621_39)"/>
<path fill-rule="evenodd" clip-rule="evenodd" d="M15.4214 8.00968L14.8194 9.40175C14.2285 9.49213 13.6515 9.66617 13.1069 9.91709L13.0965 9.92194C13.0621 9.93798 13.0264 9.95464 12.9929 9.97238L12.7598 8.62532C13.6026 8.26424 14.5059 8.0563 15.4207 8.01036L15.4214 8.00968ZM16.4437 8.02431C20.7091 8.36876 23.8756 12.1197 23.5028 16.3881C23.4749 16.7176 23.3607 17.0266 23.175 17.2911C23.0843 17.4206 22.9754 17.5415 22.8504 17.6465C22.4731 17.9665 21.9938 18.1201 21.5025 18.0802C21.0111 18.0403 20.5667 17.8121 20.2486 17.4363C19.9304 17.0604 19.7808 16.5828 19.8239 16.0913C19.9187 15.0062 19.5861 13.9548 18.8865 13.1262C18.1876 12.2983 17.2064 11.7941 16.122 11.7067C15.233 11.6347 14.3625 11.8486 13.6083 12.3279L13.5311 12.3783L14.3113 10.5759C14.9312 10.3977 15.5809 10.3326 16.2376 10.3859C17.6741 10.5016 18.9755 11.1701 19.9025 12.2677C20.8295 13.3654 21.2707 14.7619 21.1446 16.1986C21.1328 16.3372 21.1751 16.4723 21.2645 16.5778C21.3533 16.684 21.4796 16.7485 21.6181 16.7595C21.7566 16.7703 21.8921 16.727 21.9981 16.637C22.1049 16.5475 22.1704 16.4208 22.1821 16.2821C22.4908 12.7437 19.8652 9.63174 16.3281 9.34642C15.8242 9.30595 15.3178 9.32508 14.8194 9.40308L15.4214 8.01103C15.7616 7.99247 16.1037 7.99733 16.4437 8.02564V8.02431ZM13.5318 12.3763L14.3119 10.5739H14.3106C13.9199 10.6857 13.541 10.843 13.1788 11.0437L13.4224 12.451C13.4505 12.4303 13.4799 12.4108 13.5089 12.3916C13.5166 12.3865 13.5242 12.3814 13.5318 12.3763Z" fill="url(#paint2_linear_621_39)"/>
<path fill-rule="evenodd" clip-rule="evenodd" d="M17.28 20.9337C16.6447 21.1261 15.9741 21.1973 15.2961 21.144C12.3307 20.9036 10.1292 18.2951 10.3884 15.3293C10.4002 15.1907 10.3578 15.0556 10.2691 14.9508C10.1804 14.8446 10.0534 14.7807 9.91487 14.7698C9.62837 14.7454 9.37455 14.9605 9.35081 15.2471C9.20039 16.9618 9.72773 18.6272 10.8328 19.9365C11.9385 21.2464 13.4912 22.044 15.2048 22.1815C15.7277 22.2232 16.2546 22.1994 16.7691 22.1159C17.2998 22.0285 17.8186 21.8767 18.3101 21.6601C18.3449 21.6452 18.3784 21.6304 18.4127 21.6149L18.412 21.6156L18.6438 22.9546C17.856 23.2753 17.0157 23.4643 16.1652 23.5127C15.8075 23.5339 15.4473 23.5326 15.0892 23.5035C13.0228 23.3371 11.1506 22.3759 9.81814 20.7963C8.48435 19.2166 7.84969 17.2087 8.03011 15.1411C8.11858 14.1264 9.01569 13.3668 10.0298 13.4484C10.5211 13.4882 10.967 13.7164 11.2844 14.0916C11.6019 14.4668 11.7522 14.9451 11.7091 15.4367C11.514 17.675 13.1746 19.642 15.4117 19.8232C16.2584 19.8906 17.0894 19.699 17.8152 19.2668C17.873 19.2331 17.9307 19.198 17.9871 19.1603L18.0055 19.2648L18.0041 19.2634L18.2261 20.5482C17.9223 20.708 17.6065 20.8369 17.28 20.9337Z" fill="url(#paint3_linear_621_39)"/>
<defs>
<linearGradient id="paint0_linear_621_39" x1="13.9847" y1="7.59605" x2="9.27403" y2="21.4015" gradientUnits="userSpaceOnUse">
<stop stop-color="white"/>
<stop offset="1" stop-color="white" stop-opacity="0"/>
</linearGradient>
<linearGradient id="paint1_linear_621_39" x1="16.9758" y1="23.4439" x2="20.5488" y2="10.0944" gradientUnits="userSpaceOnUse">
<stop stop-color="white"/>
<stop offset="1" stop-color="white" stop-opacity="0"/>
</linearGradient>
<linearGradient id="paint2_linear_621_39" x1="21.8326" y1="7.90986" x2="13.5824" y2="7.20062" gradientUnits="userSpaceOnUse">
<stop stop-color="white"/>
<stop offset="1" stop-color="white" stop-opacity="0"/>
</linearGradient>
<linearGradient id="paint3_linear_621_39" x1="9.02531" y1="23.4901" x2="17.9739" y2="23.087" gradientUnits="userSpaceOnUse">
<stop stop-color="white"/>
<stop offset="1" stop-color="white" stop-opacity="0"/>
</linearGradient>
</defs>
</svg>
